<svg width="35" height="36" viewBox="0 0 35 36" fill="none" xmlns="http://www.w3.org/2000/svg">
<path d="M25.498 28.5672L18.6118 24.7527C21.1712 22.7391 21.8663 18.7819 21.8663 16.5632V11.9448C21.8663 8.88669 17.803 5.48075 13.7217 5.48075C9.64144 5.48075 5.47042 8.88723 5.47042 11.9448V16.5632C5.47042 18.5806 6.32406 22.662 8.90972 24.7352L1.8457 28.5671C1.8457 28.5671 0 29.3896 0 30.415V33.1866C0 34.2065 0.827935 35.0345 1.8457 35.0345H25.498C26.5168 35.0345 27.3448 34.2065 27.3448 33.1866V30.415C27.3448 29.3279 25.498 28.5671 25.498 28.5671L25.498 28.5672ZM25.1574 32.847H2.18757V30.8914C2.34452 30.7771 2.56382 30.6448 2.73663 30.5655C2.788 30.5419 2.83941 30.5173 2.88808 30.4894L9.95261 26.658C10.5968 26.3086 11.0239 25.6605 11.089 24.931C11.1541 24.2015 10.8495 23.4867 10.2786 23.0284C8.44433 21.5579 7.65847 18.3007 7.65847 16.5633V11.9449C7.65847 10.3737 10.6203 7.66835 13.7222 7.66835C16.8815 7.66835 19.6793 10.3366 19.6793 11.9449V16.5633C19.6793 18.2766 19.1472 21.548 17.26 23.0328C16.9755 23.2568 16.7509 23.5478 16.6065 23.8799C16.462 24.2119 16.402 24.5745 16.432 24.9354C16.4624 25.296 16.5818 25.6435 16.7793 25.9468C16.9769 26.2501 17.2465 26.4997 17.564 26.6734L24.4503 30.4878C24.511 30.5212 24.5881 30.5573 24.6521 30.5852C24.8134 30.6535 25.0119 30.7678 25.1574 30.8685V32.847ZM33.1533 23.1208L26.1647 19.3064C28.7241 17.2928 29.522 13.3356 29.522 11.1169V6.49852C29.522 3.44039 25.3564 0 21.2751 0C18.6228 0 15.9108 1.44211 14.3325 3.28894C15.2327 3.34469 16.2253 3.34582 17.0828 3.61925C18.235 2.72183 19.693 2.18808 21.2751 2.18808C24.4344 2.18808 27.3345 4.89016 27.3345 6.4991V11.1175C27.3345 12.8308 26.7001 16.1022 24.8128 17.587C24.5284 17.811 24.3038 18.102 24.1593 18.434C24.0149 18.7661 23.9549 19.1287 23.9849 19.4896C24.0153 19.8502 24.1347 20.1977 24.3322 20.501C24.5298 20.8043 24.7994 21.0539 25.1169 21.2275L32.1055 25.042C32.1662 25.0753 32.2433 25.1114 32.3073 25.1393C32.4686 25.2077 32.6671 25.322 32.8125 25.4226V27.3678H28.3971C29.0637 27.871 29.2655 28.5907 29.5242 29.5553H33.1538C34.1726 29.5553 35.0005 28.7274 35.0005 27.7075V24.9698C35 23.8815 33.1532 23.1208 33.1532 23.1208L33.1533 23.1208Z" fill="#FAFAFA"/>
</svg>
