<svg width="35" height="33" viewBox="0 0 35 33" fill="none" xmlns="http://www.w3.org/2000/svg">
<path d="M16.3351 0.435676C16.6562 0.155012 17.0706 0 17.5 0C17.9294 0 18.3438 0.155012 18.6649 0.435676L34.4539 14.252C34.784 14.5607 34.9792 14.9835 34.9984 15.4313C35.0176 15.879 34.8593 16.3166 34.5569 16.6515C34.2544 16.9865 33.8316 17.1926 33.3776 17.2263C32.9237 17.26 32.4742 17.1187 32.1242 16.8322L31.5347 16.3193V29.3584C31.5347 30.2745 31.165 31.1531 30.507 31.8008C29.849 32.4486 28.9566 32.8125 28.026 32.8125H6.97397C6.04341 32.8125 5.15096 32.4486 4.49296 31.8008C3.83495 31.1531 3.46529 30.2745 3.46529 29.3584V16.3193L2.87583 16.8322C2.52577 17.1187 2.07629 17.26 1.62236 17.2263C1.16842 17.1926 0.745568 16.9865 0.443131 16.6515C0.140694 16.3166 -0.0176444 15.879 0.0015639 15.4313C0.0207722 14.9835 0.216023 14.5607 0.546071 14.252L16.3351 0.435676ZM6.97397 13.2451V29.3584H12.237V20.7232C12.237 20.2652 12.4218 19.8259 12.7508 19.502C13.0798 19.1781 13.526 18.9962 13.9913 18.9962H21.0087C21.474 18.9962 21.9202 19.1781 22.2492 19.502C22.5782 19.8259 22.763 20.2652 22.763 20.7232V29.3584H28.026V13.2469L17.5 4.03655L6.97397 13.2451ZM19.2543 29.3584V22.4503H15.7457V29.3584H19.2543Z" fill="#D9B658"/>
</svg>
