<svg width="35" height="34" viewBox="0 0 35 34" fill="none" xmlns="http://www.w3.org/2000/svg">
<path d="M20.935 12.6701C20.935 12.2999 20.788 11.9449 20.5262 11.6832C20.2645 11.4215 19.9095 11.2744 19.5393 11.2744H8.37416C8.00401 11.2744 7.64903 11.4215 7.38729 11.6832C7.12556 11.9449 6.97852 12.2999 6.97852 12.6701C6.97852 13.0402 7.12556 13.3952 7.38729 13.6569C7.64903 13.9187 8.00401 14.0657 8.37416 14.0657H19.5393C19.9095 14.0657 20.2645 13.9187 20.5262 13.6569C20.788 13.3952 20.935 13.0402 20.935 12.6701ZM19.0741 18.2527C19.0741 17.8825 18.9271 17.5275 18.6654 17.2658C18.4036 17.004 18.0486 16.857 17.6785 16.857H8.37416C8.00401 16.857 7.64903 17.004 7.38729 17.2658C7.12556 17.5275 6.97852 17.8825 6.97852 18.2527C6.97852 18.6228 7.12556 18.9778 7.38729 19.2395C7.64903 19.5013 8.00401 19.6483 8.37416 19.6483H17.6785C18.0486 19.6483 18.4036 19.5013 18.6654 19.2395C18.9271 18.9778 19.0741 18.6228 19.0741 18.2527ZM19.5393 22.4396C19.9095 22.4396 20.2645 22.5866 20.5262 22.8484C20.788 23.1101 20.935 23.4651 20.935 23.8352C20.935 24.2054 20.788 24.5604 20.5262 24.8221C20.2645 25.0839 19.9095 25.2309 19.5393 25.2309H8.37416C8.00401 25.2309 7.64903 25.0839 7.38729 24.8221C7.12556 24.5604 6.97852 24.2054 6.97852 23.8352C6.97852 23.4651 7.12556 23.1101 7.38729 22.8484C7.64903 22.5866 8.00401 22.4396 8.37416 22.4396H19.5393Z" fill="#FAFAFA"/>
<path fill-rule="evenodd" clip-rule="evenodd" d="M6.73077 33.7588H30.0641C31.3732 33.7588 32.6287 33.2388 33.5543 32.3131C34.48 31.3874 35 30.132 35 28.8229V18.9511C35 18.5941 34.8582 18.2517 34.6057 17.9992C34.3533 17.7468 34.0109 17.6049 33.6538 17.6049H27.8205V3.59238C27.8205 1.03828 24.9326 -0.447876 22.8541 1.03648L22.54 1.26084C21.8522 1.74909 21.0293 2.01079 20.1858 2.0095C19.3423 2.00821 18.5202 1.74401 17.8338 1.25366C16.688 0.438195 15.3166 0 13.9103 0C12.5039 0 11.1325 0.438195 9.98667 1.25366C9.30034 1.74401 8.47823 2.00821 7.63474 2.0095C6.79124 2.01079 5.96833 1.74909 5.28051 1.26084L4.96641 1.03648C2.88795 -0.447876 0 1.03648 0 3.59238V27.028C0 28.8131 0.709133 30.5251 1.9714 31.7874C3.23366 33.0497 4.94566 33.7588 6.73077 33.7588ZM11.5518 3.44341C12.2409 2.9542 13.0651 2.6914 13.9103 2.6914C14.7554 2.6914 15.5796 2.9542 16.2687 3.44341C17.4115 4.26029 18.7807 4.7002 20.1855 4.70181C21.5902 4.70342 22.9605 4.26664 24.1051 3.45238L24.4192 3.22802C24.4863 3.18029 24.5651 3.15192 24.6472 3.146C24.7293 3.14008 24.8114 3.15684 24.8846 3.19445C24.9578 3.23207 25.0192 3.28908 25.0622 3.35927C25.1052 3.42945 25.128 3.51009 25.1282 3.59238V28.8229C25.1282 29.6306 25.3221 30.3934 25.6667 31.0665H6.73077C5.6597 31.0665 4.6325 30.641 3.87515 29.8836C3.11779 29.1263 2.69231 28.0991 2.69231 27.028V3.59238C2.69252 3.51009 2.71536 3.42945 2.75833 3.35927C2.80129 3.28908 2.86273 3.23207 2.93592 3.19445C3.00911 3.15684 3.09123 3.14008 3.17331 3.146C3.25538 3.15192 3.33425 3.18029 3.40128 3.22802L3.71538 3.45238C4.86006 4.26664 6.23029 4.70342 7.63503 4.70181C9.03976 4.7002 10.409 4.26029 11.5518 3.44341ZM27.8205 28.8229V20.2973H32.3077V28.8229C32.3077 29.4179 32.0713 29.9886 31.6506 30.4094C31.2298 30.8301 30.6591 31.0665 30.0641 31.0665C29.4691 31.0665 28.8984 30.8301 28.4776 30.4094C28.0569 29.9886 27.8205 29.4179 27.8205 28.8229Z" fill="#FAFAFA"/>
</svg>
