<svg width="30" height="40" viewBox="0 0 30 40" fill="none" xmlns="http://www.w3.org/2000/svg">
<path fill-rule="evenodd" clip-rule="evenodd" d="M3.59701 11.2777C3.72988 9.16094 4.66447 7.17437 6.21051 5.72242C7.75656 4.27048 9.79783 3.46232 11.9188 3.46246H13.0208V1.97855C13.0208 1.4538 13.2293 0.950552 13.6003 0.579503C13.9714 0.208453 14.4746 0 14.9994 0C15.5241 0 16.0274 0.208453 16.3984 0.579503C16.7695 0.950552 16.9779 1.4538 16.9779 1.97855V3.46246H18.08C20.2009 3.46232 22.2422 4.27048 23.7882 5.72242C25.3343 7.17437 26.2689 9.16094 26.4017 11.2777L26.839 18.2699C27.0056 20.9359 27.9008 23.505 29.4269 25.6974C29.7422 26.1506 29.9349 26.6777 29.9862 27.2274C30.0374 27.7771 29.9456 28.3308 29.7195 28.8345C29.4935 29.3382 29.1409 29.7748 28.6961 30.1019C28.2513 30.429 27.7295 30.6354 27.1813 30.7011L20.4404 31.5083V33.6353C20.4404 35.0783 19.8671 36.4623 18.8467 37.4827C17.8263 38.503 16.4424 39.0763 14.9994 39.0763C13.5563 39.0763 12.1724 38.503 11.152 37.4827C10.1316 36.4623 9.55836 35.0783 9.55836 33.6353V31.5083L2.81746 30.6991C2.26959 30.6333 1.74807 30.4268 1.30356 30.0998C0.85906 29.7729 0.506684 29.3365 0.28067 28.8331C0.0546555 28.3297 -0.0373122 27.7764 0.0137022 27.2269C0.0647165 26.6775 0.256979 26.1505 0.571809 25.6974C2.09786 23.505 2.99301 20.9359 3.15975 18.2699L3.59701 11.2777ZM11.9188 6.43027C10.5527 6.43011 9.23798 6.95058 8.24219 7.88571C7.24641 8.82084 6.64445 10.1003 6.55889 11.4637L6.12361 18.4559C5.92248 21.6631 4.84531 24.7536 3.00938 27.391C2.98656 27.4238 2.97261 27.4619 2.96889 27.5017C2.96516 27.5414 2.97179 27.5815 2.98812 27.6179C3.00445 27.6544 3.02993 27.6859 3.06208 27.7096C3.09424 27.7333 3.13197 27.7483 3.17162 27.7531L10.5654 28.6414C13.5115 28.9936 16.4872 28.9936 19.4333 28.6414L26.8271 27.7531C26.8668 27.7483 26.9045 27.7333 26.9366 27.7096C26.9688 27.6859 26.9943 27.6544 27.0106 27.6179C27.0269 27.5815 27.0336 27.5414 27.0298 27.5017C27.0261 27.4619 27.0122 27.4238 26.9894 27.391C25.154 24.7534 24.0775 21.6629 23.8771 18.4559L23.4398 11.4637C23.3543 10.1003 22.7523 8.82084 21.7565 7.88571C20.7608 6.95058 19.446 6.43011 18.08 6.43027H11.9188ZM14.9994 36.1085C13.6342 36.1085 12.5262 35.0005 12.5262 33.6353V32.1514H17.4725V33.6353C17.4725 35.0005 16.3646 36.1085 14.9994 36.1085Z" fill="#FAFAFA"/>
</svg>
